<svg width="20" height="20" viewBox="0 0 20 20" fill="none" xmlns="http://www.w3.org/2000/svg">
<mask id="mask0_139_472" style="mask-type:alpha" maskUnits="userSpaceOnUse" x="0" y="0" width="20" height="20">
<rect width="20" height="20" fill="#D9D9D9"/>
</mask>
<g mask="url(#mask0_139_472)">
<path d="M3.33341 16.6667C2.87508 16.6667 2.48286 16.5036 2.15675 16.1775C1.83008 15.8508 1.66675 15.4583 1.66675 15V5.00001C1.66675 4.54168 1.83008 4.14945 2.15675 3.82334C2.48286 3.49668 2.87508 3.33334 3.33341 3.33334H16.6667C17.1251 3.33334 17.5176 3.49668 17.8442 3.82334C18.1704 4.14945 18.3334 4.54168 18.3334 5.00001V15C18.3334 15.4583 18.1704 15.8508 17.8442 16.1775C17.5176 16.5036 17.1251 16.6667 16.6667 16.6667H3.33341ZM10.0001 10.6875C10.0695 10.6875 10.1423 10.677 10.2184 10.6558C10.2951 10.6353 10.3681 10.6042 10.4376 10.5625L16.3334 6.87501C16.4445 6.80557 16.5279 6.7189 16.5834 6.61501C16.639 6.51057 16.6667 6.39584 16.6667 6.27084C16.6667 5.99307 16.5487 5.78473 16.3126 5.64584C16.0765 5.50695 15.8334 5.5139 15.5834 5.66668L10.0001 9.16668L4.41675 5.66668C4.16675 5.5139 3.92369 5.51029 3.68758 5.65584C3.45147 5.80195 3.33341 6.00695 3.33341 6.27084C3.33341 6.40973 3.36119 6.53112 3.41675 6.63501C3.4723 6.73945 3.55564 6.81945 3.66675 6.87501L9.56258 10.5625C9.63203 10.6042 9.70508 10.6353 9.78175 10.6558C9.85786 10.677 9.93064 10.6875 10.0001 10.6875Z" fill="#616161"/>
</g>
</svg>
